<svg width="40" height="40" viewBox="0 0 40 40" fill="none" xmlns="http://www.w3.org/2000/svg">
<circle cx="19.9998" cy="20" r="20" fill="#EAF2FE"/>
<path d="M12.0904 22.6466L12.9884 15.8784L5.18726 10.4583L12.3149 12.8735L13.9986 10.2898L20.1441 6.4704L33.6979 13.9406L34.3994 25.3426L28.3661 33.7396L23.5957 34.4698L26.0651 29.9483V25.5953L24.2692 22.1973L22.4452 20.9897L19.639 23.8823V26.9434L17.4502 28.9935L14.6721 29.3305L13.4374 30.0326L11.417 29.3867L10.5751 26.3536L12.0904 24.2193V22.6466Z" fill="white"/>
<path d="M24.55 10.402C23.0627 10.0931 21.4351 10.1774 21.4351 10.1774C21.4351 10.1774 20.902 12.6487 17.5907 13.2946C17.6187 13.2946 21.9683 14.7831 24.55 10.402Z" fill="#94A6C3"/>
<path d="M25.8968 32.8127C27.6928 31.4085 29.0397 29.4707 29.6571 27.2802C29.6852 27.1959 29.9378 27.0555 30.1061 26.9432C30.3867 26.7747 30.6673 26.6343 30.7235 26.4096C30.8357 25.7636 30.8918 25.0896 30.8918 24.4156C30.8918 24.1629 30.6393 23.9102 30.3867 23.6574C30.1903 23.4889 29.9939 23.2923 29.9939 23.1519C29.7132 20.5963 28.5347 18.2092 26.6545 16.468L26.4581 16.6646C28.2821 18.3777 29.4607 20.7086 29.7132 23.18C29.7413 23.4047 29.9658 23.6293 30.1903 23.854C30.3867 24.0225 30.6112 24.2752 30.6112 24.3876C30.6112 25.0335 30.5551 25.6794 30.4429 26.3254C30.4148 26.4377 30.1622 26.55 29.9658 26.6623C29.6852 26.8028 29.4326 26.9432 29.3765 27.1678C28.703 29.555 27.1596 31.6331 25.1111 32.9812C25.4759 32.1948 26.6265 29.6392 27.2439 28.3474L27.1316 24.191L23.5677 20.7367L21.5473 21.0176L19.3304 24.6123C19.3304 24.6123 20.3687 25.9322 18.9095 27.4768C17.4784 28.9933 16.3559 29.3303 16.3559 29.3303L15.3176 28.7686C15.6263 28.3755 16.2436 27.7857 16.7207 27.3925C17.5345 26.7185 18.3483 26.6623 18.3483 25.9322C18.3764 24.4156 16.7488 24.8369 16.7488 24.8369L16.1595 25.3986L15.9069 27.4768L14.6722 29.0214L14.5319 28.9933L12.5115 28.544C12.5115 28.544 13.7462 27.898 13.9426 27.1678C14.139 26.4657 13.5497 24.1348 13.5217 23.9944C13.5497 24.0225 14.111 24.4999 14.3635 25.2863C14.8125 24.0506 15.4018 22.871 15.5702 22.7587C15.7385 22.6464 18.0115 21.4388 18.0115 21.4388L17.2539 23.4327L17.8151 23.1238L19.1621 19.8099C19.1621 19.8099 20.4809 19.164 21.4631 19.164C23.231 19.1359 25.8407 16.9735 24.6621 13.098C24.9989 13.2384 30.8357 16.1591 31.8459 21.8882C32.6036 26.2973 30.1061 30.4256 25.8968 32.8127Z" fill="#94A6C3"/>
<path d="M19.2181 11.0198C19.8635 10.2616 19.6109 9.13818 19.6109 9.13818L17.7308 11.9184C17.7027 11.9184 18.4043 11.9465 19.2181 11.0198Z" fill="#0A192B"/>
<path d="M12.904 26.2132L13.1285 25.0898C13.1285 25.0898 12.2024 26.7186 12.1183 26.9433C12.0341 27.1961 12.1744 27.6454 12.5392 27.6173C12.904 27.5892 13.353 27.0557 13.353 26.6625C13.353 26.157 12.904 26.2132 12.904 26.2132Z" fill="#0A192B"/>
<path d="M29.5729 8.35192C29.5729 8.35192 30.9759 8.40809 32.4352 8.57659C29.152 5.9929 26.0371 5.23464 23.5116 5.23464C20.0319 5.23464 17.6747 6.6669 17.5345 6.75116L18.6289 5.00997C18.6289 5.00997 14.2512 4.58872 12.7078 9.22251C12.3149 8.23959 11.9502 6.80732 11.9502 6.80732C11.9502 6.80732 9.67718 8.80126 10.7435 12.1151C8.1338 11.1603 4.4016 9.84036 4.26129 9.81227C4.06486 9.78417 4.00874 9.86845 4.00874 9.86845C4.00874 9.86845 3.95261 9.95273 4.12098 10.0931C4.42966 10.3459 10.3226 14.6988 11.6134 15.5414C11.3328 16.5523 11.3328 17.0298 11.6134 17.5072C12.0063 18.1531 12.0344 18.4901 11.9782 18.9675C11.9221 19.445 11.417 23.5733 11.3048 24.0788C11.1925 24.5843 10.0139 26.3816 10.0701 26.9152C10.1262 27.4488 10.8558 29.7235 11.5012 29.9763C11.9782 30.1449 13.1568 30.5099 13.9426 30.5099C14.2231 30.5099 14.4757 30.4537 14.588 30.3414C15.065 29.9202 15.2053 29.8359 15.5421 29.8359C15.5702 29.8359 15.5982 29.8359 15.6263 29.8359C15.7665 29.8359 15.935 29.864 16.1313 29.864C16.5803 29.864 17.1697 29.7797 17.5906 29.3866C18.2079 28.7688 19.2742 27.9262 19.611 27.533C20.0319 26.9995 20.2564 26.2693 20.1442 25.5391C20.06 24.8651 20.4248 24.2754 20.8457 23.6856C21.3789 22.9835 22.361 21.7197 22.361 21.7197C24.2973 23.1801 25.5039 25.3987 25.5039 27.8701C25.5039 32.2511 21.6875 35.7896 16.9732 35.7896C16.2436 35.7896 15.5421 35.7054 14.8405 35.5369C17.0012 36.2951 18.8253 36.5479 20.3126 36.5479C23.4835 36.5479 25.1672 35.3965 25.1672 35.3965C25.1672 35.3965 24.5779 36.1547 23.6238 37.0253C23.6519 37.0253 23.6519 37.0253 23.6519 37.0253C28.8994 36.2951 31.453 31.9702 31.453 31.9702C31.453 31.9702 31.2566 33.3744 31.004 34.3293C37.9913 29.0776 36.8128 22.5061 36.7847 22.2814C36.8408 22.3656 37.5424 23.2081 37.9072 23.6575C39.0296 12.0871 29.5729 8.35192 29.5729 8.35192ZM18.8253 26.8309C18.7131 26.9714 18.236 27.3926 17.8993 27.7015C17.5625 28.0105 17.1977 28.3194 16.9171 28.6002C16.8049 28.7126 16.5803 28.7688 16.2436 28.7688C16.1313 28.7688 16.0191 28.7688 15.935 28.7688C15.8788 28.7688 15.8226 28.7688 15.7665 28.7688C15.7104 28.7688 15.6824 28.7688 15.6543 28.7688C15.5702 28.7688 15.4859 28.7688 15.4017 28.7688C15.8226 28.207 17.0574 26.9152 17.4783 26.6344C17.9834 26.2974 18.236 25.9604 17.9273 25.3706C17.6186 24.7808 16.8049 24.9213 16.8049 24.9213C16.8049 24.9213 17.2819 24.7247 17.7028 24.7247C17.1697 24.5842 16.4962 24.7247 16.1875 25.0336C15.8507 25.3425 15.9069 26.4378 15.7665 27.1399C15.6263 27.8701 15.1492 28.2351 14.4196 28.9091C14.0268 29.2742 13.7461 29.3866 13.5216 29.3866C13.0446 29.3023 12.4834 29.1619 12.0905 29.0215C11.8099 28.6564 11.3889 27.4488 11.2767 26.9433C11.3609 26.6625 11.6976 26.0727 11.866 25.7357C12.2027 25.0898 12.3992 24.7247 12.4553 24.3877C12.5675 23.9102 12.9323 20.9615 13.0726 19.7258C13.4374 20.2032 13.9426 20.9895 13.8303 21.4951C14.6441 20.3436 14.0548 19.2203 13.7742 18.7709C13.5216 18.3216 13.1849 17.4229 13.4655 16.4681C13.7461 15.5133 14.7564 12.8734 14.7564 12.8734C14.7564 12.8734 15.0931 13.4632 15.5702 13.3508C16.0472 13.2385 19.8916 7.45325 19.8916 7.45325C19.8916 7.45325 20.9299 9.72799 19.8355 11.385C18.7131 13.0419 17.6186 13.3508 17.6186 13.3508C17.6186 13.3508 19.162 13.6316 20.5932 12.5926C21.1824 13.9687 21.7437 15.4009 21.7718 15.5975C21.6875 15.7941 20.5651 18.4901 20.4528 18.6586C20.3967 18.7148 20.0039 18.8271 19.7232 18.8833C19.2462 19.0237 18.9656 19.108 18.8533 19.1922C18.6569 19.3607 17.7589 21.8321 17.338 23.0397C16.8329 23.1801 16.3278 23.4609 15.963 24.0226C16.1594 23.8822 16.7768 23.7979 17.2258 23.7418C17.6186 23.7137 18.8253 24.3596 19.134 25.5672C19.134 25.5953 19.134 25.5953 19.134 25.6234C19.1901 26.0727 19.0498 26.494 18.8253 26.8309ZM16.1875 27.168C16.44 26.8028 16.412 26.185 16.44 25.9884C16.4681 25.7919 16.5242 25.4268 16.7487 25.3706C16.9732 25.3144 17.5064 25.3987 17.5064 25.7919C17.5064 26.1569 17.1135 26.2412 16.8329 26.494C16.6365 26.6906 16.2436 27.1118 16.1875 27.168ZM27.3841 21.804C27.6647 20.3717 27.6928 19.1361 27.6086 18.125C28.703 19.5854 29.3764 21.3547 29.5729 23.1801C29.601 23.4048 29.8254 23.6295 30.0499 23.8541C30.2463 24.0226 30.4709 24.2473 30.4709 24.3877C30.4709 25.0336 30.4147 25.6795 30.3025 26.3255C30.2744 26.4097 30.0219 26.5502 29.8254 26.6625C29.5448 26.8028 29.2923 26.9433 29.2362 27.168C28.6188 29.3304 27.2999 31.2401 25.532 32.5881C28.1417 29.864 29.4045 25.3706 27.3841 21.804ZM25.6162 32.8409C27.4402 31.4367 28.8433 29.4709 29.4606 27.2522C29.4887 27.168 29.7412 27.0275 29.9096 26.9152C30.1902 26.7748 30.4709 26.6063 30.527 26.3816C30.6392 25.7357 30.6954 25.0617 30.6954 24.3877C30.6954 24.1349 30.4428 23.8822 30.1902 23.6295C30.0499 23.4609 29.8254 23.2643 29.8254 23.1239C29.601 21.0738 28.7872 19.1361 27.5244 17.5353C26.9632 14.1653 24.7182 13.1261 24.6621 13.098C24.7182 13.1823 26.1774 15.2886 25.1672 17.76C24.129 20.2594 21.4631 19.8662 21.2386 19.8943C21.0141 19.8943 20.1442 21.0176 19.0498 23.0958C18.9094 23.0397 18.3202 22.8993 17.6467 23.0116C18.1518 21.6074 18.9094 19.6134 19.0498 19.445C19.1059 19.3888 19.5268 19.2765 19.8074 19.1922C20.3406 19.0518 20.5932 18.9675 20.6774 18.8552C20.7335 18.7709 21.0141 18.125 21.2947 17.451C21.5472 17.451 22.1927 17.3948 22.2488 17.3667C22.3049 17.3106 22.8381 15.9345 22.8381 15.766C22.8381 15.6256 21.7437 12.9015 21.3228 11.8624C21.5192 11.6377 21.7156 11.3569 21.9121 11.048C27.6647 11.6658 32.1545 16.5523 32.1545 22.478C32.1545 27.0275 29.4887 30.9874 25.6162 32.8409Z" fill="#0A192B"/>
<path d="M18.1519 17.6756C18.685 17.0578 18.4044 15.9063 17.4223 15.7098C17.6748 15.12 18.0396 13.9405 18.0396 13.9405C18.0396 13.9405 15.1773 18.4339 14.9247 18.5181C14.6722 18.6024 14.4196 17.6194 14.4196 17.6194C13.8865 19.6695 15.3176 19.9504 15.486 19.3045C16.2717 19.1079 17.6186 18.2653 18.1519 17.6756Z" fill="#0A192B"/>
<path d="M15.7107 18.7711L17.1699 16.2717C17.1699 16.2717 18.0117 16.693 17.5908 17.367C17.0576 18.1533 15.7107 18.7711 15.7107 18.7711Z" fill="#FFD923"/>
<path d="M33.7538 30.3414C33.3329 30.9031 32.8558 31.4929 32.2946 32.0546C35.9146 25.0898 32.463 18.7148 32.3226 18.462C32.5752 18.7148 32.8278 18.9957 33.0522 19.2483C35.8303 22.3376 36.1671 26.9714 33.7538 30.3414Z" fill="#D82122"/>
<path d="M37.1215 21.3827C35.8588 17.9846 34.0628 15.092 30.1061 12.4802C26.2897 9.9527 22.1928 10.1493 21.9682 10.1774C21.9402 10.1774 21.9121 10.1774 21.9121 10.1774C22.0524 10.1212 22.1928 10.0931 22.333 10.065C23.2029 9.78415 24.3254 9.55951 25.4479 9.41909C28.4224 8.99784 31.425 10.0088 33.4735 12.1713C33.5016 12.1994 33.5016 12.1994 33.5296 12.2275C35.8588 14.6988 37.0654 17.788 37.1215 21.3827Z" fill="#D82122"/>
<path d="M29.2081 7.48152C25.0269 6.69518 22.333 7.08835 20.3968 7.81852C20.3406 7.59385 20.1442 7.14452 19.9758 6.77943C19.3865 7.48152 18.7692 8.32403 18.3763 8.85762C17.31 9.58779 16.861 10.2899 16.861 10.2899C17.4783 8.18361 19.2743 6.61093 21.4631 6.21775C22.0804 6.10542 22.7539 6.04926 23.4835 6.04926C25.4198 6.07733 27.356 6.55476 29.2081 7.48152Z" fill="#D82122"/>
<path d="M13.7462 12.8734C10.463 12.7611 11.5574 8.94171 11.6136 8.71704C11.6136 8.74513 11.838 11.722 13.7462 12.8734Z" fill="#D82122"/>
<path d="M16.9728 5.9928C14.4473 7.50932 14.9524 11.1321 14.9524 11.1321C12.5391 7.45315 16.7764 6.07705 16.9728 5.9928Z" fill="#D82122"/>
<path d="M12.8199 13.8844C12.9883 14.0248 13.1566 14.2775 12.9602 14.6426C12.8479 14.8392 12.6796 14.8111 12.427 14.6988C12.0903 14.5303 10.0698 13.3508 8.24585 12.1432C10.3224 12.8734 12.427 13.6597 12.7638 13.8282C12.7638 13.8282 12.7918 13.8563 12.8199 13.8844Z" fill="white"/>
</svg>
