<svg width="40" height="40" viewBox="0 0 40 40" fill="none" xmlns="http://www.w3.org/2000/svg">
<circle cx="19.9998" cy="20" r="20" fill="white"/>
<path fill-rule="evenodd" clip-rule="evenodd" d="M14.291 6.12518C14.5456 5.96601 14.8667 5.95809 15.1289 6.10452L33.9177 16.5969C34.1782 16.7424 34.3397 17.0174 34.3397 17.3159V21.9521C34.3397 22.2419 34.1873 22.5104 33.9385 22.6591L15.1498 33.8834C14.8628 34.0549 14.5007 34.0358 14.2333 33.8353L10.3292 30.9071C10.1218 30.7516 9.99976 30.5075 9.99976 30.2483V9.26361C9.99976 8.97967 10.146 8.71575 10.3868 8.56526L14.291 6.12518ZM13.9039 8.30938L11.6468 9.72005V28.8465L24.0487 21.9341L22.01 20.739L19.0553 22.5118L19.0553 22.5118L15.1511 24.8543C14.8967 25.0069 14.5799 25.0109 14.3217 24.8647C14.0635 24.7186 13.9039 24.4448 13.9039 24.1481V8.30938ZM20.3908 19.7897L19.4551 19.2413V20.3511L20.3908 19.7897ZM17.808 21.3394V13.6558C17.808 13.3638 17.9627 13.0936 18.2144 12.9457C18.4662 12.7978 18.7775 12.7943 19.0325 12.9364L32.6926 20.5503V17.7992L15.551 8.22666V22.6936L17.808 21.3394ZM31.869 21.9768L19.4551 15.0576V17.3321L26.1243 21.2416C26.3792 21.3911 26.5345 21.6656 26.5313 21.961C26.5281 22.2565 26.3669 22.5276 26.1088 22.6714L12.3318 30.3503L14.7795 32.1861L31.869 21.9768Z" fill="#245F9E"/>
</svg>
