<svg width="40" height="40" viewBox="0 0 40 40" fill="none" xmlns="http://www.w3.org/2000/svg">
<circle cx="19.9998" cy="20" r="20" fill="white"/>
<path d="M14.1077 32.0645C13.6255 32.0637 13.1633 31.8721 12.8222 31.5314C12.481 31.1908 12.2886 30.7289 12.2871 30.2467V26.5147L23.7822 18.9954L12.3659 11.5557V5.74341C12.3676 5.54564 12.4474 5.35657 12.5878 5.21734C12.7283 5.07811 12.9181 4.99999 13.1158 5C13.2623 5.0006 13.4052 5.04572 13.5255 5.12937L31.8725 17.487C32.1192 17.6528 32.3214 17.8768 32.4612 18.1392C32.6009 18.4016 32.674 18.6943 32.674 18.9916C32.674 19.2889 32.6009 19.5816 32.4612 19.844C32.3214 20.1064 32.1192 20.3304 31.8725 20.4962L15.1154 31.7457C14.8203 31.9487 14.4705 32.0575 14.1123 32.0579L14.1077 32.0645Z" fill="url(#paint0_linear_21_70)"/>
<path d="M25.4827 34.949C25.1233 34.9486 24.7726 34.8391 24.4768 34.635L7.80124 23.4033C7.55452 23.2374 7.3524 23.0134 7.21264 22.751C7.07287 22.4887 6.99976 22.1959 6.99976 21.8987C6.99976 21.6014 7.07287 21.3086 7.21264 21.0463C7.3524 20.7839 7.55452 20.5599 7.80124 20.394L26.2289 8.01954C26.349 7.9364 26.4916 7.89163 26.6376 7.89111C26.8354 7.89111 27.0252 7.96923 27.1657 8.10846C27.3061 8.24769 27.3859 8.43675 27.3876 8.63452V14.3793L15.8925 21.8987L27.306 29.3346V33.1323C27.3083 33.3764 27.2604 33.6183 27.1653 33.8431C27.0701 34.0679 26.9298 34.2708 26.7529 34.4391C26.4107 34.7642 25.9575 34.9469 25.4855 34.95L25.4827 34.949Z" fill="url(#paint1_linear_21_70)"/>
<path d="M17.6184 23.0274L22.9422 26.496L17.6568 30.0443L12.3527 26.4735L17.6184 23.0274Z" fill="#264FA1"/>
<path d="M22.0544 17.8657L16.7306 14.3971L22.016 10.8488L27.3211 14.4196L22.0544 17.8657Z" fill="#264FA1"/>
<defs>
<linearGradient id="paint0_linear_21_70" x1="22.4806" y1="8.05829" x2="22.4806" y2="29.9534" gradientUnits="userSpaceOnUse">
<stop offset="0.1" stop-color="#264FA1"/>
<stop offset="0.484" stop-color="#288EC3"/>
<stop offset="0.8" stop-color="#2BBEDE"/>
</linearGradient>
<linearGradient id="paint1_linear_21_70" x1="17.1937" y1="33.4888" x2="17.1937" y2="12.9782" gradientUnits="userSpaceOnUse">
<stop offset="0.1" stop-color="#264FA1"/>
<stop offset="0.484" stop-color="#288EC3"/>
<stop offset="0.8" stop-color="#2BBEDE"/>
</linearGradient>
</defs>
</svg>
