<svg width="40" height="40" viewBox="0 0 40 40" fill="none" xmlns="http://www.w3.org/2000/svg">
<circle cx="19.9998" cy="20" r="20" fill="black"/>
<path d="M6.28357 11.2593C7.41962 11.2593 8.48793 11.2559 9.55624 11.261C9.96779 11.2627 10.4857 11.1401 10.76 11.3407C11.0318 11.5396 11.0713 12.0704 11.1879 12.4631C12.2382 16.0024 13.2825 19.5443 14.3294 23.0845C14.3645 23.2036 14.4177 23.3177 14.4863 23.4951C14.5643 23.3683 14.62 23.2971 14.6552 23.2165C15.4182 21.4648 16.1779 19.7115 16.9418 17.9607C17.5549 16.5563 18.8032 15.7092 20.2582 15.7563C21.8178 15.8069 22.881 16.6026 23.4777 18.0293C24.1877 19.726 24.8864 21.4271 25.5921 23.1256C25.6384 23.2362 25.6992 23.3408 25.8047 23.5517C26.0602 22.7055 26.314 21.9681 26.4975 21.2145C26.5961 20.8098 26.7847 20.7198 27.174 20.7275C28.4858 20.7523 29.7984 20.7369 31.1797 20.7369C31.0117 21.3028 30.8582 21.8275 30.7004 22.3505C30.0128 24.6295 29.3243 26.9093 28.6341 29.1874C28.3983 29.9659 27.8359 30.3817 27.0136 30.3869C26.2283 30.392 25.4429 30.3894 24.6575 30.3869C23.8301 30.3843 23.3071 30.0422 22.9985 29.2826C22.1239 27.1296 21.2571 24.9733 20.386 22.8195C20.3277 22.6755 20.2608 22.5357 20.1562 22.3008C20.0473 22.5572 19.9676 22.7329 19.8964 22.9113C19.045 25.0582 18.1962 27.2059 17.3457 29.3529C17.0764 30.0328 16.5594 30.3946 15.8341 30.4006C15.0058 30.4075 14.1776 30.4049 13.3502 30.4014C12.5074 30.398 11.9467 29.9942 11.6972 29.1831C11.169 27.4666 10.6528 25.7467 10.1324 24.0276C8.93892 20.0844 7.74628 16.1421 6.55365 12.199C6.46791 11.9143 6.38903 11.628 6.28357 11.2593Z" fill="white"/>
<path d="M27.3669 18.3894C27.643 17.4583 27.89 16.6137 28.1437 15.7709C28.563 14.3785 28.9797 12.9852 29.4178 11.5988C29.4607 11.4634 29.6425 11.2765 29.7625 11.2747C31.1618 11.2533 32.561 11.2636 33.9603 11.267C33.9989 11.267 34.0366 11.2919 34.1181 11.3193C33.932 11.9341 33.752 12.5437 33.5633 13.1507C33.0618 14.7712 32.5499 16.3891 32.0586 18.013C31.9754 18.2874 31.8665 18.4005 31.5613 18.3963C30.1929 18.3782 28.8237 18.3885 27.3678 18.3885L27.3669 18.3894Z" fill="white"/>
</svg>
